<svg xmlns="http://www.w3.org/2000/svg" width="26.553" height="24.569" viewBox="0 0 26.553 24.569">
  <g id="Group_3" data-name="Group 3" transform="translate(-139.724 -267.387)">
    <path id="Path_2" data-name="Path 2" d="M154.045,291.956c-5.318,0-9.272-1.413-11.756-4.2a10.211,10.211,0,0,1-2.544-7.351c.024-4.125,1.313-7.384,3.83-9.687,3.86-3.531,9.254-3.371,10.224-3.313h9.368V272.7l-9.7-.011c-.025,0-3.926-.281-6.347,1.958-1.385,1.279-2.087,3.258-2.087,5.879l-.019.3a4.94,4.94,0,0,0,1.27,3.46c1.426,1.553,4.108,2.374,7.756,2.374,2.245,0,5.167-.345,6.332-1.986a3.847,3.847,0,0,0,.593-2.36h-4.9v-5.292h8.94l.638,1.732c.188.509,1.756,5.094-.918,8.928C162.755,290.519,159.159,291.956,154.045,291.956Z" transform="translate(0 0)" fill="#323c5e"/>
  </g>
</svg>
